<svg xmlns="http://www.w3.org/2000/svg" xmlns:xlink="http://www.w3.org/1999/xlink" contentStyleType="text/css" data-diagram-type="DESCRIPTION" height="1218px" preserveAspectRatio="none" style="width:2086px;height:1218px;background:#FFFFFF;" version="1.1" viewBox="0 0 2086 1218" width="2086px" zoomAndPan="magnify"><title>T-hackathon &#8212; End-to-end Architecture</title><defs/><g><g class="title" data-source-line="32"><text fill="#000000" font-family="sans-serif" font-size="14" font-weight="bold" lengthAdjust="spacing" textLength="296.0986" x="888.4018" y="23.5352">T-hackathon &#8212; End-to-end Architecture</text></g><!--cluster hosting--><g class="cluster" data-entity="hosting" data-source-line="36" data-uid="ent0003" id="cluster_hosting"><path d="M30.5251,190.9759 C34.8665,183.4378 40.3536,183.7427 45.2945,190.35 C48.2447,184.3747 54.0807,184.6771 57.6731,189.6222 C60.6801,181.5794 67.0926,181.5758 71.7064,188.0711 C76.6102,182.244 82.085,182.0998 85.8293,189.3257 C89.0247,182.0312 94.3849,181.4989 99.3443,187.5377 C102.6433,180.2659 109.5706,180.1964 114.3065,185.8778 C118.5463,180.8902 122.601,180.4128 126.0151,186.7328 C132.1322,181.401 136.3701,182.5968 140.1775,189.4233 C144.0484,182.2513 150.0837,184.0881 153.6397,189.7537 C157.3039,183.3804 164,182.7797 167.3443,190.0745 C171.6502,183.44 177.0661,182.9844 181.0604,190.3791 C191.3338,183.5931 197.234,185.9868 201,197.4783 C202.3653,197.048 203.4845,197.5832 203.1603,199.233 C209.1219,202.4807 209.9421,206.8917 204.2745,211.2203 C210.0292,214.6172 210.8489,218.527 206.4221,223.6789 C212.5765,225.3646 215.3999,229.9826 210.1882,235.3393 C214.3252,241.5694 213.6812,245.8284 205.7498,247.7386 C211.5118,252.1717 209.7082,258.0025 203.3069,260.0152 C209.3979,269.2756 205.733,278.1871 194,278.4483 C195.5881,277.9056 196.5714,278.8488 196.373,280.4374 C191.965,288.2859 186.5543,289.3201 180.9619,281.6107 C177.784,288.5285 172.3314,289.3722 167.9967,282.7156 C164.1585,289.9461 159.0534,290.1487 153.6971,284.3865 C149.913,291.0732 144.906,292.3299 139.449,286.2542 C136.2407,293.5004 130.7756,293.3372 126.2902,287.5428 C122.5159,293.5077 118.7283,293.4739 114.0486,288.5618 C109.6952,294.5777 103.5257,292.8982 100.5036,287.0428 C94.2927,293.9296 89.2267,292.9134 85.0231,284.9504 C81.1733,290.5972 76.215,289.6381 73.3511,283.9364 C68.7485,290.605 61.0798,289.2855 57.7563,282.4583 C53.2865,288.6736 49.3886,289.2129 45.0034,282.3756 C34.9212,288.7115 23.7619,283.88 23,271.4483 C23.7362,271.7015 23.885,272.25 23.3146,272.8059 C15.9352,269.7601 16.6643,263.0934 22.8077,259.5312 C16.2127,257.1189 15.8651,251.7202 20.42,247.1565 C14.1675,244.1011 13.869,239.3333 18.9242,234.8981 C14.6342,229.4997 15.3076,225.6872 22.1755,223.4607 C17.6108,220.2738 17.1178,214.7414 22.7653,212.0839 C16.1996,201.5369 18.0385,194.8214 30,190.4783 C30.3958,190.3972 30.5635,190.5989 30.5251,190.9759" fill="#EEF5FF" style="stroke:#2B2B2B;stroke-width:1;"/><text fill="#000000" font-family="sans-serif" font-size="14" font-weight="bold" lengthAdjust="spacing" textLength="178.958" x="22.521" y="209.0134">Public Internet / Hosting</text></g><!--cluster browser--><g class="cluster" data-entity="browser" data-source-line="40" data-uid="ent0005" id="cluster_browser"><rect fill="#F7F7F7" height="245.21" rx="2.5" ry="2.5" style="stroke:#2B2B2B;stroke-width:1;" width="379" x="7" y="393.4483"/><path d="M217.6895,393.4483 L217.6895,402.9366 L207.6895,412.9366 L7,412.9366" fill="none" style="stroke:#2B2B2B;stroke-width:1;"/><text fill="#000000" font-family="sans-serif" font-size="14" font-weight="bold" lengthAdjust="spacing" textLength="200.6895" x="10" y="407.9834">Browser (operator machine)</text></g><!--cluster backend--><g class="cluster" data-entity="backend" data-source-line="46" data-uid="ent0009" id="cluster_backend"><rect fill="#F7F7F7" height="676.4" rx="2.5" ry="2.5" style="stroke:#2B2B2B;stroke-width:1;" width="1270" x="433" y="350.4483"/><path d="M659.4121,350.4483 L659.4121,359.9366 L649.4121,369.9366 L433,369.9366" fill="none" style="stroke:#2B2B2B;stroke-width:1;"/><text fill="#000000" font-family="sans-serif" font-size="14" font-weight="bold" lengthAdjust="spacing" textLength="216.4121" x="436" y="364.9834">Backend (one Python process)</text></g><!--cluster engine--><g class="cluster" data-entity="engine" data-source-line="50" data-uid="ent0012" id="cluster_engine"><rect fill="#F7F7F7" height="465.42" rx="2.5" ry="2.5" style="stroke:#2B2B2B;stroke-width:1;" width="921" x="758" y="393.4483"/><path d="M971.458,393.4483 L971.458,402.9366 L961.458,412.9366 L758,412.9366" fill="none" style="stroke:#2B2B2B;stroke-width:1;"/><text fill="#000000" font-family="sans-serif" font-size="14" font-weight="bold" lengthAdjust="spacing" textLength="203.458" x="761" y="407.9834">Trading engine (in-process)</text></g><!--cluster external--><g class="cluster" data-entity="external" data-source-line="67" data-uid="ent0023" id="cluster_external"><path d="M1743.8145,931.0962 C1751.997,919.8418 1761.6689,923.2411 1767.6421,933.5387 C1773.1282,922.0009 1781.9712,923.6137 1789.0446,931.8179 C1795.87,921.1606 1805.2151,923.6319 1810.3961,933.5263 C1816.4239,922.9113 1825.1444,921.9225 1832.1304,932.5457 C1839.0477,921.7634 1848.0918,919.1188 1855.8576,931.6834 C1863.518,922.3527 1870.5546,923.4517 1877.6091,932.4043 C1883.6782,921.0376 1892.6365,919.112 1900.4432,930.6738 C1906.8564,920.8599 1915.6803,922.4041 1920.4012,932.3805 C1927.7943,921.1253 1935.855,923.215 1943.2013,932.4325 C1950.6829,919.3283 1959.5184,919.4623 1967.112,932.3294 C1973.5572,922.0366 1981.0613,922.696 1987.1182,932.7118 C1993.9666,920.7102 2003.5462,921.4497 2011.0896,931.9721 C2019.6029,921.6984 2027.887,923.3251 2034.5986,933.9946 C2043.6345,922.8952 2054.6504,924.7951 2060,937.8683 C2062.0254,936.7349 2064.1351,937.477 2064.0011,940.1426 C2074.9257,945.846 2075.8288,953.8254 2065.4703,961.0261 C2077.4257,966.6374 2078.6672,975.4285 2068.4379,983.916 C2079.9022,992.9364 2079.1602,1001.7235 2066.0329,1008.3205 C2076.1218,1022.0869 2067.9118,1033.6319 2053,1035.3383 C2055.0312,1034.1943 2056.4809,1035.4972 2056.464,1037.5545 C2049.6953,1050.7811 2039.3688,1050.9426 2031.9236,1038.1936 C2026.3915,1047.4876 2018.8039,1049.2899 2011.842,1039.7154 C2004.7319,1051.6132 1996.163,1051.3739 1988.4071,1040.3763 C1981.802,1050.0104 1973.7577,1051.8281 1967.3071,1040.2228 C1959.4639,1053.5385 1950.6177,1053.4289 1942.2257,1040.7523 C1936.3163,1051.5617 1928.7147,1052.0588 1920.6797,1043.065 C1914.6816,1053.3961 1906.9777,1053.2319 1901.0601,1042.9883 C1895.112,1052.2209 1885.3011,1055.1893 1879.0096,1043.3476 C1870.0424,1053.5147 1862.9946,1051.3914 1856.1573,1040.9821 C1850.178,1053.048 1840.3766,1051.8032 1833.0402,1042.4466 C1825.7058,1050.8096 1815.1731,1049.3206 1811.0015,1038.7627 C1803.5685,1049.4164 1795.6545,1050.2204 1788.233,1038.7509 C1781.8391,1048.6641 1772.1307,1048.7501 1767.2006,1037.3092 C1754.3432,1050.2076 1739.3205,1046.0825 1735,1028.3383 C1736.9153,1027.6496 1737.7557,1028.6103 1737.4917,1030.4695 C1727.6542,1026.0238 1723.0542,1017.9989 1733.0075,1009.351 C1719.1226,1006.2088 1718.1891,993.6166 1726.4165,984.5888 C1716.3247,975.326 1718.2519,968.0654 1730.2992,962.7362 C1721.1935,947.0507 1725.0691,936.994 1742,930.8683 C1742.5975,929.9387 1743.4383,930.2642 1743.8145,931.0962" fill="#EEF5FF" style="stroke:#2B2B2B;stroke-width:1;"/><text fill="#000000" font-family="sans-serif" font-size="14" font-weight="bold" lengthAdjust="spacing" textLength="94.9648" x="1850.0176" y="949.4034">External APIs</text></g><!--entity vercel--><g class="entity" data-entity="vercel" data-source-line="37" data-uid="ent0004" id="entity_vercel"><rect fill="#FFFFFF" height="52.9766" rx="2.5" ry="2.5" style="stroke:#2B2B2B;stroke-width:0.5;" width="143.3613" x="38.32" y="217.4783"/><text fill="#000000" font-family="sans-serif" font-size="14" lengthAdjust="spacing" textLength="41.6992" x="48.32" y="241.0134">Vercel</text><text fill="#000000" font-family="sans-serif" font-size="14" lengthAdjust="spacing" textLength="63.2529" x="48.32" y="257.5017">(frontend</text><text fill="#000000" font-family="sans-serif" font-size="14" lengthAdjust="spacing" textLength="4.4297" x="111.5729" y="257.5017">&#160;</text><text fill="#000000" font-family="sans-serif" font-size="14" lengthAdjust="spacing" textLength="55.6787" x="116.0026" y="257.5017">hosting)</text></g><!--entity ui--><g class="entity" data-entity="ui" data-source-line="41" data-uid="ent0006" id="entity_ui"><rect fill="#FFFFFF" height="36.4883" rx="2.5" ry="2.5" style="stroke:#2B2B2B;stroke-width:0.5;" width="173.4189" x="23.29" y="436.6983"/><text fill="#000000" font-family="sans-serif" font-size="14" lengthAdjust="spacing" textLength="36.791" x="33.29" y="460.2334">React</text><text fill="#000000" font-family="sans-serif" font-size="14" lengthAdjust="spacing" textLength="4.4297" x="70.081" y="460.2334">&#160;</text><text fill="#000000" font-family="sans-serif" font-size="14" lengthAdjust="spacing" textLength="73.7256" x="74.5107" y="460.2334">Dashboard</text><text fill="#000000" font-family="sans-serif" font-size="14" lengthAdjust="spacing" textLength="4.4297" x="148.2363" y="460.2334">&#160;</text><text fill="#000000" font-family="sans-serif" font-size="14" lengthAdjust="spacing" textLength="34.043" x="152.666" y="460.2334">(SPA)</text></g><!--entity ui_api--><g class="entity" data-entity="ui_api" data-source-line="42" data-uid="ent0007" id="entity_ui_api"><rect fill="#FFFFFF" height="36.4883" rx="2.5" ry="2.5" style="stroke:#2B2B2B;stroke-width:0.5;" width="82.8496" x="72.58" y="586.1683"/><text fill="#000000" font-family="sans-serif" font-size="14" lengthAdjust="spacing" textLength="21.4307" x="82.58" y="609.7034">API</text><text fill="#000000" font-family="sans-serif" font-size="14" lengthAdjust="spacing" textLength="4.4297" x="104.0107" y="609.7034">&#160;</text><text fill="#000000" font-family="sans-serif" font-size="14" lengthAdjust="spacing" textLength="36.9893" x="108.4404" y="609.7034">client</text></g><!--entity sse--><g class="entity" data-entity="sse" data-source-line="43" data-uid="ent0008" id="entity_sse"><rect fill="#FFFFFF" height="52.9766" rx="2.5" ry="2.5" style="stroke:#2B2B2B;stroke-width:0.5;" width="138.2891" x="231.86" y="428.4483"/><text fill="#000000" font-family="sans-serif" font-size="14" lengthAdjust="spacing" textLength="82.0859" x="241.86" y="451.9834">EventSource</text><text fill="#000000" font-family="sans-serif" font-size="14" lengthAdjust="spacing" textLength="4.4297" x="323.9459" y="451.9834">&#160;</text><text fill="#000000" font-family="sans-serif" font-size="14" lengthAdjust="spacing" textLength="31.7734" x="328.3756" y="451.9834">(SSE)</text><text fill="#000000" font-family="sans-serif" font-size="14" lengthAdjust="spacing" textLength="89.8994" x="241.86" y="468.4717">/logs/stream</text></g><!--entity fastapi--><g class="entity" data-entity="fastapi" data-source-line="47" data-uid="ent0010" id="entity_fastapi"><rect fill="#FFFFFF" height="36.4883" rx="2.5" ry="2.5" style="stroke:#2B2B2B;stroke-width:0.5;" width="98.8252" x="448.59" y="789.8983"/><text fill="#000000" font-family="sans-serif" font-size="14" lengthAdjust="spacing" textLength="49.041" x="458.59" y="813.4334">FastAPI</text><text fill="#000000" font-family="sans-serif" font-size="14" lengthAdjust="spacing" textLength="4.4297" x="507.631" y="813.4334">&#160;</text><text fill="#000000" font-family="sans-serif" font-size="14" lengthAdjust="spacing" textLength="25.3545" x="512.0607" y="813.4334">app</text></g><!--entity mgr--><g class="entity" data-entity="mgr" data-source-line="48" data-uid="ent0011" id="entity_mgr"><rect fill="#FFFFFF" height="36.4883" rx="2.5" ry="2.5" style="stroke:#2B2B2B;stroke-width:0.5;" width="124.0088" x="514" y="974.3583"/><text fill="#000000" font-family="sans-serif" font-size="14" lengthAdjust="spacing" textLength="104.0088" x="524" y="997.8934">EngineManager</text></g><!--entity order_store--><g class="entity" data-entity="order_store" data-source-line="60" data-uid="ent0019" id="entity_order_store"><rect fill="#FFFFFF" height="36.4883" rx="2.5" ry="2.5" style="stroke:#2B2B2B;stroke-width:0.5;" width="93.8486" x="704.08" y="974.3583"/><text fill="#000000" font-family="sans-serif" font-size="14" lengthAdjust="spacing" textLength="73.8486" x="714.08" y="997.8934">OrderStore</text></g><!--entity log_store--><g class="entity" data-entity="log_store" data-source-line="61" data-uid="ent0020" id="entity_log_store"><rect fill="#FFFFFF" height="52.9766" rx="2.5" ry="2.5" style="stroke:#2B2B2B;stroke-width:0.5;" width="256.2979" x="485.85" y="577.9283"/><text fill="#000000" font-family="sans-serif" font-size="14" lengthAdjust="spacing" textLength="59.6982" x="495.85" y="601.4634">LogStore</text><text fill="#000000" font-family="sans-serif" font-size="14" lengthAdjust="spacing" textLength="80.9717" x="495.85" y="617.9517">(in-memory</text><text fill="#000000" font-family="sans-serif" font-size="14" lengthAdjust="spacing" textLength="4.4297" x="576.8217" y="617.9517">&#160;</text><text fill="#000000" font-family="sans-serif" font-size="14" lengthAdjust="spacing" textLength="21.0615" x="581.2514" y="617.9517">tail</text><text fill="#000000" font-family="sans-serif" font-size="14" lengthAdjust="spacing" textLength="4.4297" x="602.3129" y="617.9517">&#160;</text><text fill="#000000" font-family="sans-serif" font-size="14" lengthAdjust="spacing" textLength="11.1289" x="606.7426" y="617.9517">+</text><text fill="#000000" font-family="sans-serif" font-size="14" lengthAdjust="spacing" textLength="4.4297" x="617.8715" y="617.9517">&#160;</text><text fill="#000000" font-family="sans-serif" font-size="14" lengthAdjust="spacing" textLength="22.668" x="622.3012" y="617.9517">SSE</text><text fill="#000000" font-family="sans-serif" font-size="14" lengthAdjust="spacing" textLength="4.4297" x="644.9691" y="617.9517">&#160;</text><text fill="#000000" font-family="sans-serif" font-size="14" lengthAdjust="spacing" textLength="82.749" x="649.3988" y="617.9517">subscribers)</text></g><!--entity main--><g class="entity" data-entity="main" data-source-line="51" data-uid="ent0013" id="entity_main"><rect fill="#FFFFFF" height="52.9766" rx="2.5" ry="2.5" style="stroke:#2B2B2B;stroke-width:0.5;" width="145.7061" x="852.15" y="428.4483"/><text fill="#000000" font-family="sans-serif" font-size="14" lengthAdjust="spacing" textLength="78.0664" x="862.15" y="451.9834">MainEngine</text><text fill="#000000" font-family="sans-serif" font-size="14" lengthAdjust="spacing" textLength="88.5596" x="862.15" y="468.4717">(composition</text><text fill="#000000" font-family="sans-serif" font-size="14" lengthAdjust="spacing" textLength="4.4297" x="950.7096" y="468.4717">&#160;</text><text fill="#000000" font-family="sans-serif" font-size="14" lengthAdjust="spacing" textLength="32.7168" x="955.1393" y="468.4717">root)</text></g><!--entity event--><g class="entity" data-entity="event" data-source-line="52" data-uid="ent0014" id="entity_event"><rect fill="#FFFFFF" height="52.9766" rx="2.5" ry="2.5" style="stroke:#2B2B2B;stroke-width:0.5;" width="228.6533" x="1042.67" y="577.9283"/><text fill="#000000" font-family="sans-serif" font-size="14" lengthAdjust="spacing" textLength="82.0996" x="1052.67" y="601.4634">EventEngine</text><text fill="#000000" font-family="sans-serif" font-size="14" lengthAdjust="spacing" textLength="40.4346" x="1052.67" y="617.9517">(timer</text><text fill="#000000" font-family="sans-serif" font-size="14" lengthAdjust="spacing" textLength="4.4297" x="1093.1046" y="617.9517">&#160;</text><text fill="#000000" font-family="sans-serif" font-size="14" lengthAdjust="spacing" textLength="43.9961" x="1097.5343" y="617.9517">thread</text><text fill="#000000" font-family="sans-serif" font-size="14" lengthAdjust="spacing" textLength="4.4297" x="1141.5304" y="617.9517">&#160;</text><text fill="#000000" font-family="sans-serif" font-size="14" lengthAdjust="spacing" textLength="11.1289" x="1145.96" y="617.9517">+</text><text fill="#000000" font-family="sans-serif" font-size="14" lengthAdjust="spacing" textLength="4.4297" x="1157.0889" y="617.9517">&#160;</text><text fill="#000000" font-family="sans-serif" font-size="14" lengthAdjust="spacing" textLength="46.8262" x="1161.5186" y="617.9517">worker</text><text fill="#000000" font-family="sans-serif" font-size="14" lengthAdjust="spacing" textLength="4.4297" x="1208.3448" y="617.9517">&#160;</text><text fill="#000000" font-family="sans-serif" font-size="14" lengthAdjust="spacing" textLength="48.5488" x="1212.7745" y="617.9517">thread)</text></g><!--entity gateway--><g class="entity" data-entity="gateway" data-source-line="54" data-uid="ent0015" id="entity_gateway"><rect fill="#FFFFFF" height="69.4648" rx="2.5" ry="2.5" style="stroke:#2B2B2B;stroke-width:0.5;" width="241.0537" x="774.47" y="773.4083"/><text fill="#000000" font-family="sans-serif" font-size="14" lengthAdjust="spacing" textLength="102.2588" x="784.47" y="796.9434">GatewayEngine</text><text fill="#000000" font-family="sans-serif" font-size="14" lengthAdjust="spacing" textLength="60.1768" x="784.47" y="813.4317">(Roostoo</text><text fill="#000000" font-family="sans-serif" font-size="14" lengthAdjust="spacing" textLength="4.4297" x="844.6468" y="813.4317">&#160;</text><text fill="#000000" font-family="sans-serif" font-size="14" lengthAdjust="spacing" textLength="32.833" x="849.0764" y="813.4317">REST</text><text fill="#000000" font-family="sans-serif" font-size="14" lengthAdjust="spacing" textLength="4.4297" x="881.9095" y="813.4317">&#160;</text><text fill="#000000" font-family="sans-serif" font-size="14" lengthAdjust="spacing" textLength="11.1289" x="886.3391" y="813.4317">+</text><text fill="#000000" font-family="sans-serif" font-size="14" lengthAdjust="spacing" textLength="4.4297" x="897.468" y="813.4317">&#160;</text><text fill="#000000" font-family="sans-serif" font-size="14" lengthAdjust="spacing" textLength="36.668" x="901.8977" y="813.4317">order</text><text fill="#000000" font-family="sans-serif" font-size="14" lengthAdjust="spacing" textLength="4.4297" x="938.5657" y="813.4317">&#160;</text><text fill="#000000" font-family="sans-serif" font-size="14" lengthAdjust="spacing" textLength="46.9697" x="942.9954" y="813.4317">polling</text><text fill="#000000" font-family="sans-serif" font-size="14" lengthAdjust="spacing" textLength="4.4297" x="989.9651" y="813.4317">&#160;</text><text fill="#000000" font-family="sans-serif" font-size="14" lengthAdjust="spacing" textLength="11.1289" x="994.3948" y="813.4317">+</text><text fill="#000000" font-family="sans-serif" font-size="14" lengthAdjust="spacing" textLength="53.2861" x="784.47" y="829.92">account</text><text fill="#000000" font-family="sans-serif" font-size="14" lengthAdjust="spacing" textLength="4.4297" x="837.7561" y="829.92">&#160;</text><text fill="#000000" font-family="sans-serif" font-size="14" lengthAdjust="spacing" textLength="43.1143" x="842.1858" y="829.92">cache)</text></g><!--entity market--><g class="entity" data-entity="market" data-source-line="55" data-uid="ent0016" id="entity_market"><rect fill="#FFFFFF" height="52.9766" rx="2.5" ry="2.5" style="stroke:#2B2B2B;stroke-width:0.5;" width="212.8008" x="1050.6" y="781.6483"/><text fill="#000000" font-family="sans-serif" font-size="14" lengthAdjust="spacing" textLength="92.2783" x="1060.6" y="805.1834">MarketEngine</text><text fill="#000000" font-family="sans-serif" font-size="14" lengthAdjust="spacing" textLength="56.7314" x="1060.6" y="821.6717">(Binance</text><text fill="#000000" font-family="sans-serif" font-size="14" lengthAdjust="spacing" textLength="4.4297" x="1117.3314" y="821.6717">&#160;</text><text fill="#000000" font-family="sans-serif" font-size="14" lengthAdjust="spacing" textLength="39.9014" x="1121.7611" y="821.6717">klines</text><text fill="#000000" font-family="sans-serif" font-size="14" lengthAdjust="spacing" textLength="4.4297" x="1161.6625" y="821.6717">&#160;</text><text fill="#000000" font-family="sans-serif" font-size="14" lengthAdjust="spacing" textLength="11.1289" x="1166.0922" y="821.6717">+</text><text fill="#000000" font-family="sans-serif" font-size="14" lengthAdjust="spacing" textLength="4.4297" x="1177.2211" y="821.6717">&#160;</text><text fill="#000000" font-family="sans-serif" font-size="14" lengthAdjust="spacing" textLength="71.75" x="1181.6508" y="821.6717">indicators)</text></g><!--entity strat--><g class="entity" data-entity="strat" data-source-line="56" data-uid="ent0017" id="entity_strat"><rect fill="#FFFFFF" height="52.9766" rx="2.5" ry="2.5" style="stroke:#2B2B2B;stroke-width:0.5;" width="205.6572" x="1298.17" y="781.6483"/><text fill="#000000" font-family="sans-serif" font-size="14" lengthAdjust="spacing" textLength="100.8574" x="1308.17" y="805.1834">StrategyEngine</text><text fill="#000000" font-family="sans-serif" font-size="14" lengthAdjust="spacing" textLength="71.1348" x="1308.17" y="821.6717">(strategies</text><text fill="#000000" font-family="sans-serif" font-size="14" lengthAdjust="spacing" textLength="4.4297" x="1379.3048" y="821.6717">&#160;</text><text fill="#000000" font-family="sans-serif" font-size="14" lengthAdjust="spacing" textLength="11.1289" x="1383.7345" y="821.6717">+</text><text fill="#000000" font-family="sans-serif" font-size="14" lengthAdjust="spacing" textLength="4.4297" x="1394.8634" y="821.6717">&#160;</text><text fill="#000000" font-family="sans-serif" font-size="14" lengthAdjust="spacing" textLength="94.5342" x="1399.293" y="821.6717">holdings/PnL)</text></g><!--entity risk--><g class="entity" data-entity="risk" data-source-line="57" data-uid="ent0018" id="entity_risk"><rect fill="#FFFFFF" height="52.9766" rx="2.5" ry="2.5" style="stroke:#2B2B2B;stroke-width:0.5;" width="123.8105" x="1539.09" y="781.6483"/><text fill="#000000" font-family="sans-serif" font-size="14" lengthAdjust="spacing" textLength="73.7598" x="1549.09" y="805.1834">RiskEngine</text><text fill="#000000" font-family="sans-serif" font-size="14" lengthAdjust="spacing" textLength="64.9551" x="1549.09" y="821.6717">(currently</text><text fill="#000000" font-family="sans-serif" font-size="14" lengthAdjust="spacing" textLength="4.4297" x="1614.0451" y="821.6717">&#160;</text><text fill="#000000" font-family="sans-serif" font-size="14" lengthAdjust="spacing" textLength="34.4258" x="1618.4748" y="821.6717">stub)</text></g><!--entity roostoo--><g class="entity" data-entity="roostoo" data-source-line="68" data-uid="ent0024" id="entity_roostoo"><rect fill="#FFFFFF" height="69.4648" rx="2.5" ry="2.5" style="stroke:#2B2B2B;stroke-width:0.5;" width="138.7471" x="1742.63" y="957.8683"/><text fill="#000000" font-family="sans-serif" font-size="14" lengthAdjust="spacing" textLength="55.624" x="1752.63" y="981.4034">Roostoo</text><text fill="#000000" font-family="sans-serif" font-size="14" lengthAdjust="spacing" textLength="4.4297" x="1808.254" y="981.4034">&#160;</text><text fill="#000000" font-family="sans-serif" font-size="14" lengthAdjust="spacing" textLength="32.833" x="1812.6837" y="981.4034">REST</text><text fill="#000000" font-family="sans-serif" font-size="14" lengthAdjust="spacing" textLength="4.4297" x="1845.5167" y="981.4034">&#160;</text><text fill="#000000" font-family="sans-serif" font-size="14" lengthAdjust="spacing" textLength="21.4307" x="1849.9464" y="981.4034">API</text><text fill="#000000" font-family="sans-serif" font-size="14" lengthAdjust="spacing" textLength="44.3652" x="1752.63" y="997.8917">/mock</text><text fill="#000000" font-family="sans-serif" font-size="14" lengthAdjust="spacing" textLength="4.4297" x="1796.9952" y="997.8917">&#160;</text><text fill="#000000" font-family="sans-serif" font-size="14" lengthAdjust="spacing" textLength="14.3281" x="1801.4249" y="997.8917">or</text><text fill="#000000" font-family="sans-serif" font-size="14" lengthAdjust="spacing" textLength="4.4297" x="1815.753" y="997.8917">&#160;</text><text fill="#000000" font-family="sans-serif" font-size="14" lengthAdjust="spacing" textLength="32.6484" x="1820.1827" y="997.8917">/real</text><text fill="#000000" font-family="sans-serif" font-size="14" lengthAdjust="spacing" textLength="34.7402" x="1752.63" y="1014.38">(v3/*</text><text fill="#000000" font-family="sans-serif" font-size="14" lengthAdjust="spacing" textLength="4.4297" x="1787.3702" y="1014.38">&#160;</text><text fill="#000000" font-family="sans-serif" font-size="14" lengthAdjust="spacing" textLength="72.3721" x="1791.7999" y="1014.38">endpoints)</text></g><!--entity binance--><g class="entity" data-entity="binance" data-source-line="69" data-uid="ent0025" id="entity_binance"><rect fill="#FFFFFF" height="52.9766" rx="2.5" ry="2.5" style="stroke:#2B2B2B;stroke-width:0.5;" width="135.3018" x="1916.35" y="966.1183"/><text fill="#000000" font-family="sans-serif" font-size="14" lengthAdjust="spacing" textLength="52.1787" x="1926.35" y="989.6534">Binance</text><text fill="#000000" font-family="sans-serif" font-size="14" lengthAdjust="spacing" textLength="4.4297" x="1978.5287" y="989.6534">&#160;</text><text fill="#000000" font-family="sans-serif" font-size="14" lengthAdjust="spacing" textLength="32.833" x="1982.9584" y="989.6534">REST</text><text fill="#000000" font-family="sans-serif" font-size="14" lengthAdjust="spacing" textLength="4.4297" x="2015.7914" y="989.6534">&#160;</text><text fill="#000000" font-family="sans-serif" font-size="14" lengthAdjust="spacing" textLength="21.4307" x="2020.2211" y="989.6534">API</text><text fill="#000000" font-family="sans-serif" font-size="14" lengthAdjust="spacing" textLength="98.6152" x="1926.35" y="1006.1417">/api/v3/klines</text></g><!--entity op--><g class="entity" data-entity="op" data-source-line="34" data-uid="ent0002" id="entity_op"><ellipse cx="109.9959" cy="51.4883" fill="#F1F1F1" rx="8" ry="8" style="stroke:#181818;stroke-width:0.5;"/><path d="M109.9959,59.4883 L109.9959,86.4883 M96.9959,67.4883 L122.9959,67.4883 M109.9959,86.4883 L96.9959,101.4883 M109.9959,86.4883 L122.9959,101.4883" fill="none" style="stroke:#181818;stroke-width:0.5;"/><text fill="#000000" font-family="sans-serif" font-size="14" lengthAdjust="spacing" textLength="60.5117" x="79.74" y="116.5234">Operator</text></g><!--entity sqlite--><g class="entity" data-entity="sqlite" data-source-line="64" data-uid="ent0021" id="entity_sqlite"><path d="M725.52,1116.3383 C725.52,1106.3383 817.001,1106.3383 817.001,1106.3383 C817.001,1106.3383 908.4819,1106.3383 908.4819,1116.3383 L908.4819,1191.2914 C908.4819,1201.2914 817.001,1201.2914 817.001,1201.2914 C817.001,1201.2914 725.52,1201.2914 725.52,1191.2914 L725.52,1116.3383" fill="#FFF7E6" style="stroke:#2B2B2B;stroke-width:0.5;"/><path d="M725.52,1116.3383 C725.52,1126.3383 817.001,1126.3383 817.001,1126.3383 C817.001,1126.3383 908.4819,1126.3383 908.4819,1116.3383" fill="none" style="stroke:#2B2B2B;stroke-width:0.5;"/><text fill="#000000" font-family="sans-serif" font-size="14" lengthAdjust="spacing" textLength="42.9639" x="735.52" y="1143.8734">SQLite</text><text fill="#000000" font-family="sans-serif" font-size="14" lengthAdjust="spacing" textLength="4.4297" x="778.4839" y="1143.8734">&#160;</text><text fill="#000000" font-family="sans-serif" font-size="14" lengthAdjust="spacing" textLength="18.5391" x="782.9136" y="1143.8734">DB</text><text fill="#000000" font-family="sans-serif" font-size="14" lengthAdjust="spacing" textLength="162.9619" x="735.52" y="1160.3617">(data/orders/orders.db)</text><text fill="#000000" font-family="sans-serif" font-size="14" lengthAdjust="spacing" textLength="8.1006" x="735.52" y="1176.85">-</text><text fill="#000000" font-family="sans-serif" font-size="14" lengthAdjust="spacing" textLength="4.4297" x="743.6206" y="1176.85">&#160;</text><text fill="#000000" font-family="sans-serif" font-size="14" lengthAdjust="spacing" textLength="87.9922" x="748.0503" y="1176.85">orders_latest</text><text fill="#000000" font-family="sans-serif" font-size="14" lengthAdjust="spacing" textLength="8.1006" x="735.52" y="1193.3383">-</text><text fill="#000000" font-family="sans-serif" font-size="14" lengthAdjust="spacing" textLength="4.4297" x="743.6206" y="1193.3383">&#160;</text><text fill="#000000" font-family="sans-serif" font-size="14" lengthAdjust="spacing" textLength="97.8838" x="748.0503" y="1193.3383">order_updates</text></g><!--entity log_file--><g class="entity" data-entity="log_file" data-source-line="65" data-uid="ent0022" id="entity_log_file"><path d="M1719.34,583.4283 C1719.34,573.4283 1806.9963,573.4283 1806.9963,573.4283 C1806.9963,573.4283 1894.6525,573.4283 1894.6525,583.4283 L1894.6525,625.4048 C1894.6525,635.4048 1806.9963,635.4048 1806.9963,635.4048 C1806.9963,635.4048 1719.34,635.4048 1719.34,625.4048 L1719.34,583.4283" fill="#FFF7E6" style="stroke:#2B2B2B;stroke-width:0.5;"/><path d="M1719.34,583.4283 C1719.34,593.4283 1806.9963,593.4283 1806.9963,593.4283 C1806.9963,593.4283 1894.6525,593.4283 1894.6525,583.4283" fill="none" style="stroke:#2B2B2B;stroke-width:0.5;"/><text fill="#000000" font-family="sans-serif" font-size="14" lengthAdjust="spacing" textLength="57.1211" x="1729.34" y="610.9634">Rotating</text><text fill="#000000" font-family="sans-serif" font-size="14" lengthAdjust="spacing" textLength="4.4297" x="1786.4611" y="610.9634">&#160;</text><text fill="#000000" font-family="sans-serif" font-size="14" lengthAdjust="spacing" textLength="21.376" x="1790.8908" y="610.9634">log</text><text fill="#000000" font-family="sans-serif" font-size="14" lengthAdjust="spacing" textLength="4.4297" x="1812.2668" y="610.9634">&#160;</text><text fill="#000000" font-family="sans-serif" font-size="14" lengthAdjust="spacing" textLength="21.041" x="1816.6964" y="610.9634">file</text><text fill="#000000" font-family="sans-serif" font-size="14" lengthAdjust="spacing" textLength="155.3125" x="1729.34" y="627.4517">(data/logs/system.log)</text></g><!--link op to vercel--><g class="link" data-entity-1="op" data-entity-2="vercel" data-source-line="72" data-uid="lnk26" id="link_op_vercel"><path d="M110,119.9183 C110,149.7983 110,184.7583 110,211.0483" fill="none" id="op-to-vercel" style="stroke:#2B2B2B;stroke-width:1;"/><polygon fill="#2B2B2B" points="110,217.0483,114,208.0483,110,212.0483,106,208.0483,110,217.0483" style="stroke:#2B2B2B;stroke-width:1;"/><text fill="#000000" font-family="sans-serif" font-size="13" lengthAdjust="spacing" textLength="130.7681" x="111" y="163.0466">open dashboard URL</text></g><!--link vercel to ui--><g class="link" data-entity-1="vercel" data-entity-2="ui" data-source-line="73" data-uid="lnk27" id="link_vercel_ui"><path d="M110,270.5883 C110,313.6383 110,393.3883 110,430.3383" fill="none" id="vercel-to-ui" style="stroke:#2B2B2B;stroke-width:1;"/><polygon fill="#2B2B2B" points="110,436.3383,114,427.3383,110,431.3383,106,427.3383,110,436.3383" style="stroke:#2B2B2B;stroke-width:1;"/><text fill="#000000" font-family="sans-serif" font-size="13" lengthAdjust="spacing" textLength="114.499" x="111" y="316.0166">serve static assets</text><text fill="#000000" font-family="sans-serif" font-size="13" lengthAdjust="spacing" textLength="92.0347" x="111" y="331.3272">(HTML/CSS/JS)</text></g><!--link ui to ui_api--><g class="link" data-entity-1="ui" data-entity-2="ui_api" data-source-line="75" data-uid="lnk28" id="link_ui_ui_api"><path d="M110.47,473.4383 C111.24,501.8183 112.5972,551.5805 113.3672,579.9505" fill="none" id="ui-to-ui_api" style="stroke:#2B2B2B;stroke-width:1;"/><polygon fill="#2B2B2B" points="113.53,585.9483,117.2843,576.8431,113.3943,580.9501,109.2873,577.0601,113.53,585.9483" style="stroke:#2B2B2B;stroke-width:1;"/><text fill="#000000" font-family="sans-serif" font-size="13" lengthAdjust="spacing" textLength="27.9805" x="113.36" y="532.4966">calls</text></g><!--link ui_api to fastapi--><g class="link" data-entity-1="ui_api" data-entity-2="fastapi" data-source-line="76" data-uid="lnk29" id="link_ui_api_fastapi"><path d="M107.54,623.0983 C98.24,651.9783 85.19,709.4183 114,743.4083 C156.33,793.3483 348.5418,804.0494 442.4418,806.3794" fill="none" id="ui_api-to-fastapi" style="stroke:#2B2B2B;stroke-width:1;"/><polygon fill="#2B2B2B" points="448.44,806.5283,439.542,802.3063,443.4415,806.4043,439.3435,810.3038,448.44,806.5283" style="stroke:#2B2B2B;stroke-width:1;"/><text fill="#000000" font-family="sans-serif" font-size="13" lengthAdjust="spacing" textLength="68.0405" x="115" y="678.9766">HTTP JSON</text><text fill="#000000" font-family="sans-serif" font-size="13" lengthAdjust="spacing" textLength="158.2534" x="115" y="694.2872">/system/*, /strategies/*,</text><text fill="#000000" font-family="sans-serif" font-size="13" lengthAdjust="spacing" textLength="114.8926" x="115" y="709.5977">/positions, /pairs,</text><text fill="#000000" font-family="sans-serif" font-size="13" lengthAdjust="spacing" textLength="129.2129" x="115" y="724.9083">/account/*, /orders,</text><text fill="#000000" font-family="sans-serif" font-size="13" lengthAdjust="spacing" textLength="59.668" x="115" y="740.2188">/logs/tail</text></g><!--link sse to fastapi--><g class="link" data-entity-1="sse" data-entity-2="fastapi" data-source-line="77" data-uid="lnk30" id="link_sse_fastapi"><path d="M299.25,481.6183 C297.75,519.8283 299.27,592.9083 327,646.6583 C360.23,711.0683 424.9111,760.1851 464.2911,786.1551" fill="none" id="sse-to-fastapi" style="stroke:#2B2B2B;stroke-width:1;"/><polygon fill="#2B2B2B" points="469.3,789.4583,463.9888,781.1642,465.1259,786.7056,459.5846,787.8427,469.3,789.4583" style="stroke:#2B2B2B;stroke-width:1;"/><text fill="#000000" font-family="sans-serif" font-size="13" lengthAdjust="spacing" textLength="21.0488" x="328" y="601.9866">SSE</text><text fill="#000000" font-family="sans-serif" font-size="13" lengthAdjust="spacing" textLength="112.252" x="328" y="617.2972">GET /logs/stream</text></g><!--link fastapi to mgr--><g class="link" data-entity-1="fastapi" data-entity-2="mgr" data-source-line="79" data-uid="lnk31" id="link_fastapi_mgr"><path d="M498.17,826.7683 C498.93,846.8883 501.95,880.4183 513,906.8683 C523.81,932.7483 540.1604,953.5219 554.8204,969.6219" fill="none" id="fastapi-to-mgr" style="stroke:#2B2B2B;stroke-width:1;"/><polygon fill="#2B2B2B" points="558.86,974.0583,555.7582,964.7106,555.4937,970.3613,549.843,970.0968,558.86,974.0583" style="stroke:#2B2B2B;stroke-width:1;"/><text fill="#000000" font-family="sans-serif" font-size="13" lengthAdjust="spacing" textLength="108.3672" x="514" y="888.4366">start/stop/status</text><text fill="#000000" font-family="sans-serif" font-size="13" lengthAdjust="spacing" textLength="105.5044" x="514" y="903.7472">(Engine lifecycle)</text></g><!--link mgr to main--><g class="link" data-entity-1="mgr" data-entity-2="main" data-source-line="80" data-uid="lnk32" id="link_mgr_main"><path d="M590.47,974.0983 C602.91,957.8383 619.92,932.3483 627,906.8683 C656,802.4483 670.09,741.5783 593,665.4083 C553.04,625.9183 504.66,689.2283 468,646.6583 C446.76,621.9983 448.06,599.1483 468,573.4283 C514.69,513.2183 728.8256,479.2165 845.6956,464.7265" fill="none" id="mgr-to-main" style="stroke:#2B2B2B;stroke-width:1;"/><polygon fill="#2B2B2B" points="851.65,463.9883,842.2262,461.1261,846.688,464.6035,843.2106,469.0653,851.65,463.9883" style="stroke:#2B2B2B;stroke-width:1;"/><text fill="#000000" font-family="sans-serif" font-size="13" lengthAdjust="spacing" textLength="187.6494" x="644.97" y="701.9766">create MainEngine(env_mode)</text><text fill="#000000" font-family="sans-serif" font-size="13" lengthAdjust="spacing" textLength="108.0054" x="644.97" y="717.2872">stop EventEngine</text></g><!--link main to event--><g class="link" data-entity-1="main" data-entity-2="event" data-source-line="82" data-uid="lnk33" id="link_main_event"><path d="M965.68,481.7983 C1008.04,508.7283 1068.9564,547.4496 1111.3064,574.3696" fill="none" id="main-to-event" style="stroke:#2B2B2B;stroke-width:1;"/><polygon fill="#2B2B2B" points="1116.37,577.5883,1110.9204,569.3845,1112.1503,574.906,1106.6288,576.136,1116.37,577.5883" style="stroke:#2B2B2B;stroke-width:1;"/><text fill="#000000" font-family="sans-serif" font-size="13" lengthAdjust="spacing" textLength="63.3242" x="1062.78" y="524.9966">start/stop</text><text fill="#000000" font-family="sans-serif" font-size="13" lengthAdjust="spacing" textLength="172.3135" x="1062.78" y="540.3072">(route events + timer ticks)</text></g><!--link event to market--><g class="link" data-entity-1="event" data-entity-2="market" data-source-line="83" data-uid="lnk34" id="link_event_market"><path d="M1157,631.3783 C1157,670.1083 1157,736.6083 1157,775.2783" fill="none" id="event-to-market" style="stroke:#2B2B2B;stroke-width:1;"/><polygon fill="#2B2B2B" points="1157,781.2783,1161,772.2783,1157,776.2783,1153,772.2783,1157,781.2783" style="stroke:#2B2B2B;stroke-width:1;"/><text fill="#000000" font-family="sans-serif" font-size="13" lengthAdjust="spacing" textLength="64.3271" x="1158" y="709.4766">on_timer()</text></g><!--link event to gateway--><g class="link" data-entity-1="event" data-entity-2="gateway" data-source-line="84" data-uid="lnk35" id="link_event_gateway"><path d="M1123.28,631.3783 C1076.29,667.5583 995.7938,729.5275 943.8238,769.5475" fill="none" id="event-to-gateway" style="stroke:#2B2B2B;stroke-width:1;"/><polygon fill="#2B2B2B" points="939.07,773.2083,948.6413,770.8864,943.0315,770.1577,943.7603,764.5479,939.07,773.2083" style="stroke:#2B2B2B;stroke-width:1;"/><text fill="#000000" font-family="sans-serif" font-size="13" lengthAdjust="spacing" textLength="64.3271" x="1073.25" y="709.4766">on_timer()</text></g><!--link event to strat--><g class="link" data-entity-1="event" data-entity-2="strat" data-source-line="85" data-uid="lnk36" id="link_event_strat"><path d="M1189.24,631.1783 C1202.29,641.6883 1217.44,654.0383 1231,665.4083 C1271.56,699.4083 1280.29,709.5783 1321,743.4083 C1336.3,756.1183 1348.8124,766.1882 1363.3524,777.6782" fill="none" id="event-to-strat" style="stroke:#2B2B2B;stroke-width:1;"/><polygon fill="#2B2B2B" points="1368.06,781.3983,1363.4787,772.6798,1364.137,778.2982,1358.5186,778.9565,1368.06,781.3983" style="stroke:#2B2B2B;stroke-width:1;"/><text fill="#000000" font-family="sans-serif" font-size="13" lengthAdjust="spacing" textLength="210.1138" x="1322" y="709.4766">process_timer_event(); on_timer()</text></g><!--link event to risk--><g class="link" data-entity-1="event" data-entity-2="risk" data-source-line="86" data-uid="lnk37" id="link_event_risk"><path d="M1271.37,611.6183 C1367.74,618.9383 1496.24,634.3183 1537,665.4083 C1574.24,693.8183 1589.2146,742.9365 1595.7646,775.4365" fill="none" id="event-to-risk" style="stroke:#2B2B2B;stroke-width:1;"/><polygon fill="#2B2B2B" points="1596.95,781.3183,1599.0931,771.7054,1595.9622,776.4168,1591.2507,773.2859,1596.95,781.3183" style="stroke:#2B2B2B;stroke-width:1;"/><text fill="#000000" font-family="sans-serif" font-size="13" lengthAdjust="spacing" textLength="64.3271" x="1587.02" y="709.4766">on_timer()</text></g><!--link main to log_store--><g class="link" data-entity-1="main" data-entity-2="log_store" data-source-line="88" data-uid="lnk38" id="link_main_log_store"><path d="M870.47,481.7983 C813.77,508.6883 730.921,547.9667 674.151,574.8967" fill="none" id="main-to-log_store" style="stroke:#2B2B2B;stroke-width:1;"/><polygon fill="#2B2B2B" points="668.73,577.4683,678.5759,577.2249,673.2475,575.3253,675.1471,569.997,668.73,577.4683" style="stroke:#2B2B2B;stroke-width:1;"/><text fill="#000000" font-family="sans-serif" font-size="13" lengthAdjust="spacing" textLength="66.0029" x="807.5" y="524.9966">write_log()</text><text fill="#000000" font-family="sans-serif" font-size="13" lengthAdjust="spacing" textLength="87.5151" x="807.5" y="540.3072">(tail + fanout)</text></g><!--link log_store to fastapi--><g class="link" data-entity-1="log_store" data-entity-2="fastapi" data-source-line="89" data-uid="lnk39" id="link_log_store_fastapi"><path d="M519.62,631.3683 C504.31,639.7583 490.41,650.8283 481,665.4083 C455.99,704.1283 473.8097,755.9395 486.7797,784.3695" fill="none" id="log_store-to-fastapi" style="stroke:#2B2B2B;stroke-width:1;"/><polygon fill="#2B2B2B" points="489.27,789.8283,489.1737,779.9799,487.1947,785.2793,481.8953,783.3003,489.27,789.8283" style="stroke:#2B2B2B;stroke-width:1;"/><text fill="#000000" font-family="sans-serif" font-size="13" lengthAdjust="spacing" textLength="100.896" x="482" y="701.9766">stream log lines</text><text fill="#000000" font-family="sans-serif" font-size="13" lengthAdjust="spacing" textLength="106.228" x="482" y="717.2872">(SSE subscribers)</text></g><!--link main to log_file--><g class="link" data-entity-1="main" data-entity-2="log_file" data-source-line="90" data-uid="lnk40" id="link_main_log_file"><path d="M998.11,465.4583 C1133.15,483.4683 1430.63,525.0583 1679,573.4283 C1691.99,575.9583 1699.8163,577.5614 1713.1963,580.5714" fill="none" id="main-to-log_file" style="stroke:#2B2B2B;stroke-width:1;"/><polygon fill="#2B2B2B" points="1719.05,581.8883,1711.1474,576.0105,1714.1719,580.7909,1709.3915,583.8155,1719.05,581.8883" style="stroke:#2B2B2B;stroke-width:1;"/><text fill="#000000" font-family="sans-serif" font-size="13" lengthAdjust="spacing" textLength="103.0479" x="1515.52" y="524.9966">append + rotate</text><text fill="#000000" font-family="sans-serif" font-size="13" lengthAdjust="spacing" textLength="186.6909" x="1515.52" y="540.3072">(LOG_FILE / LOG_MAX_BYTES)</text></g><!--link gateway to roostoo--><g class="link" data-entity-1="gateway" data-entity-2="roostoo" data-source-line="92" data-uid="lnk41" id="link_gateway_roostoo"><path d="M970.84,843.3583 C990.82,851.6783 1012.53,860.1183 1033,866.8683 C1103.84,890.2283 1122.02,897.3283 1196,906.8683 C1223.94,910.4683 1676.21,906.1583 1703,914.8683 C1729.85,923.6083 1751.2179,937.6368 1771.0979,953.9168" fill="none" id="gateway-to-roostoo" style="stroke:#2B2B2B;stroke-width:1;"/><polygon fill="#2B2B2B" points="1775.74,957.7183,1771.3112,948.9214,1771.8716,954.5504,1766.2426,955.1108,1775.74,957.7183" style="stroke:#2B2B2B;stroke-width:1;"/><text fill="#000000" font-family="sans-serif" font-size="13" lengthAdjust="spacing" textLength="121.8242" x="1197" y="888.4366">place/cancel/query</text><text fill="#000000" font-family="sans-serif" font-size="13" lengthAdjust="spacing" textLength="99.563" x="1197" y="903.7472">+ exchangeInfo</text></g><!--link market to binance--><g class="link" data-entity-1="market" data-entity-2="binance" data-source-line="93" data-uid="lnk42" id="link_market_binance"><path d="M1202.33,835.0283 C1225.19,846.8283 1253.78,859.7283 1281,866.8683 C1547.47,936.7983 1645.89,806.0883 1899,914.8683 C1924.75,925.9383 1943.9461,943.5929 1959.5661,961.2629" fill="none" id="market-to-binance" style="stroke:#2B2B2B;stroke-width:1;"/><polygon fill="#2B2B2B" points="1963.54,965.7583,1960.5761,956.366,1960.2285,962.0121,1954.5823,961.6644,1963.54,965.7583" style="stroke:#2B2B2B;stroke-width:1;"/><text fill="#000000" font-family="sans-serif" font-size="13" lengthAdjust="spacing" textLength="72.7759" x="1870.35" y="888.4366">fetch klines</text><text fill="#000000" font-family="sans-serif" font-size="13" lengthAdjust="spacing" textLength="63.5972" x="1870.35" y="903.7472">(throttled)</text></g><!--link gateway to order_store--><g class="link" data-entity-1="gateway" data-entity-2="order_store" data-source-line="95" data-uid="lnk43" id="link_gateway_order_store"><path d="M801.63,843.1883 C788.27,851.6883 776.02,862.1283 767,874.8683 C745.95,904.5783 745.8926,943.4333 748.1426,967.9933" fill="none" id="gateway-to-order_store" style="stroke:#2B2B2B;stroke-width:1;"/><polygon fill="#2B2B2B" points="748.69,973.9683,751.8522,964.6409,748.2338,968.9891,743.8856,965.3707,748.69,973.9683" style="stroke:#2B2B2B;stroke-width:1;"/><text fill="#000000" font-family="sans-serif" font-size="13" lengthAdjust="spacing" textLength="132.9199" x="768" y="895.9366">upsert order updates</text></g><!--link order_store to sqlite--><g class="link" data-entity-1="order_store" data-entity-2="sqlite" data-source-line="96" data-uid="lnk44" id="link_order_store_sqlite"><path d="M758.32,1011.2483 C767.71,1033.9183 782.0821,1068.5858 795.2621,1100.3758" fill="none" id="order_store-to-sqlite" style="stroke:#2B2B2B;stroke-width:1;"/><polygon fill="#2B2B2B" points="797.56,1105.9183,797.8082,1096.0726,795.6451,1101.2995,790.4181,1099.1364,797.56,1105.9183" style="stroke:#2B2B2B;stroke-width:1;"/><text fill="#000000" font-family="sans-serif" font-size="13" lengthAdjust="spacing" textLength="65.9395" x="785" y="1072.9066">read/write</text></g><!--link fastapi to sqlite--><g class="link" data-entity-1="fastapi" data-entity-2="sqlite" data-source-line="97" data-uid="lnk45" id="link_fastapi_sqlite"><path d="M547.45,822.3083 C599.47,835.6383 683.91,855.8283 758,866.8683 C769.35,868.5583 853.2,866.4483 861,874.8683 C919.15,937.7083 879.8597,1039.4615 847.5297,1100.7415" fill="none" id="fastapi-to-sqlite" style="stroke:#2B2B2B;stroke-width:1;"/><polygon fill="#2B2B2B" points="844.73,1106.0483,852.4674,1099.9546,847.0631,1101.626,845.3918,1096.2217,844.73,1106.0483" style="stroke:#2B2B2B;stroke-width:1;"/><text fill="#000000" font-family="sans-serif" font-size="13" lengthAdjust="spacing" textLength="76.2671" x="890.96" y="990.1666">GET /orders</text><text fill="#000000" font-family="sans-serif" font-size="13" lengthAdjust="spacing" textLength="110.2207" x="890.96" y="1005.4772">(read-only query)</text></g><!--SRC=[ZLRjRjis5Fslfo2o7xMRkjgwZm8RC21fdIQ5itYskmyWW45BjCMP8bMIYciC1VOGUy8zoSubQLjs6w0Dq4YyvtxotACyORD1nOirzvNHxBz__cMRoYWnQApvInIUSLjKqkEfjOBrYjPQeNq_Uy8cGfV2ietq5UDwoyQAQ__kTiGUfDW8-ppBt5hgXbjUCrVnqcoaNh4bLqvqB8Mf6wCHSkgtIZ2BH5olL1TIYYLlbP-93_v2oPMkWMPAB7q7ix6y-LsMAEN5TrztCrzOQpQlZ3AMVVNYadvEZRDA5cijd6FVT1ttbR2_CyOkCQ6LDQqkKwohy8yinc8Cnna-TWELtFC5Tu_7UJdyuKlY5CgqvUU338TNttzPCKlyzrWbB-ddyI1UUWpZb2n3NGwy6O0BcEQ1ALd62m__kqPOJW_SCTDaMMpYRDmkb2pOZVR2Qk5PpgwDy-376G6h-1pAF5p3sM_25aBTwzxI6ZWYOmBsWzT3C5EbiScpIrok0qDxPbT4pL6X5X6_IEQJB1E1ojbhxgg5uRPalUdu8ZgqyXXvCRx1fKYmCPddl3c131-8sQP5PGWq7VRlTQxCokNEMy7huEUm3vsYCLrghOUbOEDjc3DMiG0_Kza9S5Bs5NUU2k9D4s1Bl7zQZbwX_Lkk-KhO0AjNDWCc9PzPNjBWHS2ndjI3ezpfd58VnRtbKiVOk9smqKvwYSgjCJwwre2SkeNfxFsyh74Rli9WIdREDiQkz-yfFU6pqoXlk1SRljt7cHYmmXWs6KvdY1F8p1gZ57LspdXHWFIU5U12Oi8gHlYqArHmgEzIQgvnZsi44WwHf2vbGRnoknO9Vnfbwi4ziJhKv-A1334WjJHnbu_rA4O9vjCW4-dMXm573LPRODj5zB80mEbZTdpXTzJy52MAW0gpc3jwFyQDp2gW41rtNelQs2tpN2gK2DeorovSOUL2x7e5YLCSfDmhtDdqrn4KWBs-H20wpKD6btuzBnTOW44imyqLnk3y_c3UDYMTn2cyLmZKYJmndWTHG6Qsb4hiCiHrsZelwkTuFfH7eBtW33-Gqd35i2CnWzYTdEv_bpv0OsDhKwnH8yj1HTAVXs_pfzY5iZ5I-pGG6zsEO-qequc5dSpX7qaK5pg2Q92cOOF1pqd9s8zGJA7n_TX9qRl9A4isWhKI42ZOWm0HC9m2qPpm3XLUpsv7-QlfD7yxxMSPW15F0WMVWYlbilHAbYGMC5tFPcFsTdht2qgDGysVFcFvWRDuXMctu0wsXalhw31jLd28L_ni9tT4fGp5dMG3jUxrc-6CTKKHKfW018P0KPUUMm-xQN9gjQKUupum9PUYs1PAz3F21Xze3RM9Q23ZGPnwGZ_CQrCAi91YiOu0PLdm8lSWCqT9aGrVIiGA9jhR95Ruoy7ri-WGCvC4qCtfUO3qkjQaCu-Pmv1XJ98R4VDWx_L_-hmFxVrnl4CV-nq5O6EnJdESzFeajN6pbroZgtvs01vVJxoFi761hl0y5OFZRBHoyCCtYBvGvrWAN1PjwkZkpVpgPZJ4XvuURo_-c5_-EHiIENT32TsatSCC52z4Nj1YgFnzA-psNfzZPuiAgoLkzD9aQTRabrO8ValXYof9D3LQeGJysLAU9Ee88PpQ1blaqvSYgL3MXOJR2Oe4D7sFyZ3F8wBkxO7FaV_46w07HaEiGnVzx7y0]--></g></svg>